<mxfile modified="2020-07-26T19:23:02.063Z" host="app.diagrams.net" agent="5.0 (Windows NT 10.0; Win64; x64) AppleWebKit/537.36 (KHTML, like Gecko) Chrome/84.0.4147.89 Safari/537.36" etag="Pll6kiMK3gPNhsln6XU0" version="13.5.3" type="github">
  <diagram id="Ht1M8jgEwFfnCIfOTk4-" name="Page-1">
    <mxGraphModel dx="1728" dy="1860" grid="1" gridSize="10" guides="1" tooltips="1" connect="1" arrows="1" fold="1" page="1" pageScale="1" pageWidth="1169" pageHeight="827" math="0" shadow="0">
      <root>
        <mxCell id="0" />
        <mxCell id="1" parent="0" />
        <mxCell id="UEzPUAAOIrF-is8g5C7q-128" style="edgeStyle=orthogonalEdgeStyle;rounded=0;orthogonalLoop=1;jettySize=auto;html=1;startArrow=open;startFill=0;endArrow=open;endFill=0;strokeWidth=2;strokeColor=#808080;" parent="1" source="UEzPUAAOIrF-is8g5C7q-109" edge="1">
          <mxGeometry relative="1" as="geometry">
            <Array as="points">
              <mxPoint x="310" y="450" />
              <mxPoint x="310" y="450" />
            </Array>
            <mxPoint x="540" y="450" as="targetPoint" />
          </mxGeometry>
        </mxCell>
        <mxCell id="UEzPUAAOIrF-is8g5C7q-127" style="edgeStyle=orthogonalEdgeStyle;rounded=0;orthogonalLoop=1;jettySize=auto;html=1;startArrow=open;startFill=0;endArrow=open;endFill=0;strokeWidth=2;strokeColor=#808080;" parent="1" edge="1">
          <mxGeometry relative="1" as="geometry">
            <Array as="points">
              <mxPoint x="312" y="282" />
              <mxPoint x="312" y="420" />
            </Array>
            <mxPoint x="260.5046463484764" y="281.57142857142867" as="sourcePoint" />
            <mxPoint x="540" y="420" as="targetPoint" />
          </mxGeometry>
        </mxCell>
        <mxCell id="UEzPUAAOIrF-is8g5C7q-109" value="web GUI" style="outlineConnect=0;gradientColor=none;fontColor=#545B64;strokeColor=none;fillColor=#879196;dashed=0;verticalLabelPosition=bottom;verticalAlign=top;align=center;html=1;fontSize=12;fontStyle=0;aspect=fixed;shape=mxgraph.aws4.illustration_desktop;pointerEvents=1;labelBackgroundColor=#ffffff;" parent="1" vertex="1">
          <mxGeometry x="170" y="422" width="90.5" height="82.36" as="geometry" />
        </mxCell>
        <mxCell id="ty3-ZLZzTx-DpzIYFDF--2" value="CLI" style="outlineConnect=0;gradientColor=none;fontColor=#545B64;strokeColor=none;fillColor=#879196;dashed=0;verticalLabelPosition=bottom;verticalAlign=top;align=center;html=1;fontSize=12;fontStyle=0;aspect=fixed;shape=mxgraph.aws4.illustration_desktop;pointerEvents=1;labelBackgroundColor=#ffffff;" vertex="1" parent="1">
          <mxGeometry x="160.5" y="220" width="100" height="91" as="geometry" />
        </mxCell>
        <mxCell id="ty3-ZLZzTx-DpzIYFDF--4" value="" style="outlineConnect=0;fillColor=#d5e8d4;strokeColor=#82b366;dashed=0;verticalLabelPosition=bottom;verticalAlign=top;align=center;html=1;fontSize=12;fontStyle=0;aspect=fixed;pointerEvents=1;shape=mxgraph.aws4.container_1;" vertex="1" parent="1">
          <mxGeometry x="794" y="240" width="78" height="50" as="geometry" />
        </mxCell>
        <mxCell id="ty3-ZLZzTx-DpzIYFDF--5" value="MASTER&amp;nbsp;" style="text;html=1;align=center;verticalAlign=middle;resizable=0;points=[];autosize=1;fillColor=#d5e8d4;strokeColor=#82b366;" vertex="1" parent="1">
          <mxGeometry x="798" y="295" width="70" height="20" as="geometry" />
        </mxCell>
        <mxCell id="ty3-ZLZzTx-DpzIYFDF--6" value="" style="outlineConnect=0;gradientDirection=north;fillColor=#dae8fc;strokeColor=#6c8ebf;dashed=0;verticalLabelPosition=bottom;verticalAlign=top;align=center;html=1;fontSize=12;fontStyle=0;aspect=fixed;shape=mxgraph.aws4.resourceIcon;resIcon=mxgraph.aws4.documentdb_with_mongodb_compatibility;" vertex="1" parent="1">
          <mxGeometry x="555" y="550" width="78" height="78" as="geometry" />
        </mxCell>
        <mxCell id="ty3-ZLZzTx-DpzIYFDF--7" value="MongoDB" style="text;html=1;align=center;verticalAlign=middle;resizable=0;points=[];autosize=1;" vertex="1" parent="1">
          <mxGeometry x="550" y="628" width="70" height="20" as="geometry" />
        </mxCell>
        <mxCell id="ty3-ZLZzTx-DpzIYFDF--11" value="Active&lt;br&gt;Directory" style="outlineConnect=0;gradientDirection=north;fillColor=#dae8fc;strokeColor=#6c8ebf;dashed=0;verticalLabelPosition=bottom;verticalAlign=top;align=center;html=1;fontSize=12;fontStyle=0;aspect=fixed;shape=mxgraph.aws4.resourceIcon;resIcon=mxgraph.aws4.cloud_directory;labelBackgroundColor=#ffffff;" vertex="1" parent="1">
          <mxGeometry x="38" y="311" width="78" height="78" as="geometry" />
        </mxCell>
        <mxCell id="ty3-ZLZzTx-DpzIYFDF--14" value="" style="edgeStyle=orthogonalEdgeStyle;html=1;endArrow=none;elbow=vertical;startArrow=block;startFill=1;strokeColor=#545B64;rounded=0;" edge="1" parent="1">
          <mxGeometry width="100" relative="1" as="geometry">
            <mxPoint x="120" y="360" as="sourcePoint" />
            <mxPoint x="220" y="422" as="targetPoint" />
          </mxGeometry>
        </mxCell>
        <mxCell id="ty3-ZLZzTx-DpzIYFDF--16" value="" style="outlineConnect=0;fillColor=#dae8fc;strokeColor=#6c8ebf;dashed=0;verticalLabelPosition=bottom;verticalAlign=top;align=center;html=1;fontSize=12;fontStyle=0;aspect=fixed;pointerEvents=1;shape=mxgraph.aws4.container_1;" vertex="1" parent="1">
          <mxGeometry x="550" y="410" width="78" height="50" as="geometry" />
        </mxCell>
        <mxCell id="ty3-ZLZzTx-DpzIYFDF--18" style="edgeStyle=orthogonalEdgeStyle;rounded=0;orthogonalLoop=1;jettySize=auto;html=1;startArrow=open;startFill=0;endArrow=open;endFill=0;strokeWidth=2;strokeColor=#808080;" edge="1" parent="1">
          <mxGeometry relative="1" as="geometry">
            <Array as="points">
              <mxPoint x="593.41" y="550" />
              <mxPoint x="593.41" y="550" />
            </Array>
            <mxPoint x="593.41" y="550" as="sourcePoint" />
            <mxPoint x="593.41" y="490" as="targetPoint" />
          </mxGeometry>
        </mxCell>
        <mxCell id="ty3-ZLZzTx-DpzIYFDF--22" value="" style="outlineConnect=0;fillColor=#f8cecc;strokeColor=#b85450;dashed=0;verticalLabelPosition=bottom;verticalAlign=top;align=center;html=1;fontSize=12;fontStyle=0;aspect=fixed;pointerEvents=1;shape=mxgraph.aws4.container_1;" vertex="1" parent="1">
          <mxGeometry x="461" y="80" width="78" height="50" as="geometry" />
        </mxCell>
        <mxCell id="ty3-ZLZzTx-DpzIYFDF--23" value="INJECTOR SLAVE" style="text;html=1;align=center;verticalAlign=middle;resizable=0;points=[];autosize=1;fillColor=#f8cecc;strokeColor=#b85450;" vertex="1" parent="1">
          <mxGeometry x="440" y="135" width="120" height="20" as="geometry" />
        </mxCell>
        <mxCell id="ty3-ZLZzTx-DpzIYFDF--24" value="" style="outlineConnect=0;fillColor=#f8cecc;strokeColor=#b85450;dashed=0;verticalLabelPosition=bottom;verticalAlign=top;align=center;html=1;fontSize=12;fontStyle=0;aspect=fixed;pointerEvents=1;shape=mxgraph.aws4.container_1;" vertex="1" parent="1">
          <mxGeometry x="606" y="80" width="78" height="50" as="geometry" />
        </mxCell>
        <mxCell id="ty3-ZLZzTx-DpzIYFDF--25" value="INJECTOR SLAVE" style="text;html=1;align=center;verticalAlign=middle;resizable=0;points=[];autosize=1;fillColor=#f8cecc;strokeColor=#b85450;" vertex="1" parent="1">
          <mxGeometry x="585" y="135" width="120" height="20" as="geometry" />
        </mxCell>
        <mxCell id="ty3-ZLZzTx-DpzIYFDF--26" value="" style="outlineConnect=0;fillColor=#f8cecc;strokeColor=#b85450;dashed=0;verticalLabelPosition=bottom;verticalAlign=top;align=center;html=1;fontSize=12;fontStyle=0;aspect=fixed;pointerEvents=1;shape=mxgraph.aws4.container_1;" vertex="1" parent="1">
          <mxGeometry x="529" y="190" width="78" height="50" as="geometry" />
        </mxCell>
        <mxCell id="ty3-ZLZzTx-DpzIYFDF--27" value="INJECTOR MASTER" style="text;html=1;align=center;verticalAlign=middle;resizable=0;points=[];autosize=1;fillColor=#f8cecc;strokeColor=#b85450;" vertex="1" parent="1">
          <mxGeometry x="503" y="245" width="130" height="20" as="geometry" />
        </mxCell>
        <mxCell id="ty3-ZLZzTx-DpzIYFDF--28" value="" style="edgeStyle=orthogonalEdgeStyle;html=1;endArrow=block;elbow=vertical;startArrow=block;startFill=1;endFill=1;strokeColor=#b85450;rounded=0;fillColor=#f8cecc;" edge="1" parent="1">
          <mxGeometry width="100" relative="1" as="geometry">
            <mxPoint x="610" y="230" as="sourcePoint" />
            <mxPoint x="660" y="160" as="targetPoint" />
          </mxGeometry>
        </mxCell>
        <mxCell id="ty3-ZLZzTx-DpzIYFDF--32" value="" style="edgeStyle=orthogonalEdgeStyle;html=1;endArrow=block;elbow=vertical;startArrow=block;startFill=1;endFill=1;strokeColor=#b85450;rounded=0;fillColor=#f8cecc;" edge="1" parent="1">
          <mxGeometry width="100" relative="1" as="geometry">
            <mxPoint x="520" y="230" as="sourcePoint" />
            <mxPoint x="480" y="160" as="targetPoint" />
          </mxGeometry>
        </mxCell>
        <mxCell id="ty3-ZLZzTx-DpzIYFDF--33" value="" style="outlineConnect=0;fillColor=#fff2cc;strokeColor=#d6b656;dashed=0;verticalLabelPosition=bottom;verticalAlign=top;align=center;html=1;fontSize=12;fontStyle=0;aspect=fixed;pointerEvents=1;shape=mxgraph.aws4.container_1;" vertex="1" parent="1">
          <mxGeometry x="794" y="397.5" width="78" height="50" as="geometry" />
        </mxCell>
        <mxCell id="ty3-ZLZzTx-DpzIYFDF--34" value="RANDOM PICKER" style="text;html=1;align=center;verticalAlign=middle;resizable=0;points=[];autosize=1;fillColor=#fff2cc;strokeColor=#d6b656;" vertex="1" parent="1">
          <mxGeometry x="773" y="452.5" width="120" height="20" as="geometry" />
        </mxCell>
        <mxCell id="ty3-ZLZzTx-DpzIYFDF--35" value="DB API" style="text;html=1;align=center;verticalAlign=middle;resizable=0;points=[];autosize=1;fillColor=#dae8fc;strokeColor=#6c8ebf;" vertex="1" parent="1">
          <mxGeometry x="564" y="460" width="50" height="20" as="geometry" />
        </mxCell>
        <mxCell id="ty3-ZLZzTx-DpzIYFDF--36" style="edgeStyle=orthogonalEdgeStyle;rounded=0;orthogonalLoop=1;jettySize=auto;html=1;startArrow=open;startFill=0;endArrow=open;endFill=0;strokeWidth=2;strokeColor=#808080;exitX=0.492;exitY=-0.151;exitDx=0;exitDy=0;exitPerimeter=0;" edge="1" parent="1" source="ty3-ZLZzTx-DpzIYFDF--33">
          <mxGeometry relative="1" as="geometry">
            <Array as="points" />
            <mxPoint x="832.4099999999999" y="379.9999999999998" as="sourcePoint" />
            <mxPoint x="832.4099999999999" y="319.9999999999998" as="targetPoint" />
          </mxGeometry>
        </mxCell>
        <mxCell id="ty3-ZLZzTx-DpzIYFDF--37" style="edgeStyle=orthogonalEdgeStyle;rounded=0;orthogonalLoop=1;jettySize=auto;html=1;startArrow=open;startFill=0;endArrow=open;endFill=0;strokeWidth=2;strokeColor=#808080;" edge="1" parent="1">
          <mxGeometry relative="1" as="geometry">
            <Array as="points">
              <mxPoint x="689.5" y="434.41" />
              <mxPoint x="689.5" y="434.41" />
            </Array>
            <mxPoint x="640" y="434.46882352941196" as="sourcePoint" />
            <mxPoint x="780" y="434" as="targetPoint" />
          </mxGeometry>
        </mxCell>
        <mxCell id="ty3-ZLZzTx-DpzIYFDF--38" style="edgeStyle=orthogonalEdgeStyle;rounded=0;orthogonalLoop=1;jettySize=auto;html=1;startArrow=open;startFill=0;endArrow=open;endFill=0;strokeWidth=2;strokeColor=#808080;" edge="1" parent="1">
          <mxGeometry relative="1" as="geometry">
            <Array as="points" />
            <mxPoint x="583" y="400" as="sourcePoint" />
            <mxPoint x="583.0299999999999" y="269.9999999999998" as="targetPoint" />
          </mxGeometry>
        </mxCell>
        <mxCell id="ty3-ZLZzTx-DpzIYFDF--39" value="" style="shadow=0;dashed=0;html=1;strokeColor=none;fillColor=#4495D1;labelPosition=center;verticalLabelPosition=bottom;verticalAlign=top;align=center;outlineConnect=0;shape=mxgraph.veeam.vm_linux;" vertex="1" parent="1">
          <mxGeometry x="90" y="-190" width="110" height="110" as="geometry" />
        </mxCell>
        <mxCell id="ty3-ZLZzTx-DpzIYFDF--40" value="" style="aspect=fixed;perimeter=ellipsePerimeter;html=1;align=center;shadow=0;dashed=0;spacingTop=3;image;image=img/lib/active_directory/windows_server_2.svg;" vertex="1" parent="1">
          <mxGeometry x="240" y="-200" width="96" height="120" as="geometry" />
        </mxCell>
        <mxCell id="ty3-ZLZzTx-DpzIYFDF--41" value="" style="shadow=0;dashed=0;html=1;labelPosition=center;verticalLabelPosition=bottom;verticalAlign=top;align=center;outlineConnect=0;shape=mxgraph.veeam.3d.esx_esxi;" vertex="1" parent="1">
          <mxGeometry x="380" y="-198" width="110" height="126" as="geometry" />
        </mxCell>
        <mxCell id="ty3-ZLZzTx-DpzIYFDF--42" style="edgeStyle=orthogonalEdgeStyle;rounded=0;orthogonalLoop=1;jettySize=auto;html=1;startArrow=open;startFill=0;endArrow=open;endFill=0;strokeWidth=2;strokeColor=#808080;exitX=0.492;exitY=-0.151;exitDx=0;exitDy=0;exitPerimeter=0;" edge="1" parent="1">
          <mxGeometry relative="1" as="geometry">
            <Array as="points">
              <mxPoint x="490" />
              <mxPoint x="450" />
            </Array>
            <mxPoint x="489.99599999999975" y="70.00884086544602" as="sourcePoint" />
            <mxPoint x="450" y="-70" as="targetPoint" />
          </mxGeometry>
        </mxCell>
        <mxCell id="ty3-ZLZzTx-DpzIYFDF--43" style="edgeStyle=orthogonalEdgeStyle;rounded=0;orthogonalLoop=1;jettySize=auto;html=1;startArrow=open;startFill=0;endArrow=open;endFill=0;strokeWidth=2;strokeColor=#808080;" edge="1" parent="1">
          <mxGeometry relative="1" as="geometry">
            <Array as="points">
              <mxPoint x="560" y="370" />
              <mxPoint x="560" y="310" />
              <mxPoint x="390" y="310" />
            </Array>
            <mxPoint x="560" y="400" as="sourcePoint" />
            <mxPoint x="390" y="-80" as="targetPoint" />
          </mxGeometry>
        </mxCell>
      </root>
    </mxGraphModel>
  </diagram>
</mxfile>
